<?xml version="1.0" encoding="iso-8859-1"?>
<!-- Generator: Adobe Illustrator 19.0.0, SVG Export Plug-In . SVG Version: 6.00 Build 0)  -->
<svg version="1.1" id="Capa_1" xmlns="http://www.w3.org/2000/svg" xmlns:xlink="http://www.w3.org/1999/xlink" x="0px" y="0px"
	 viewBox="0 0 512 512" style="enable-background:new 0 0 512 512;" xml:space="preserve">
<g>
	<g transform="translate(1 1)">
		<path style="fill:#37474F;" d="M476.867,161.133v307.2H33.133l0-307.2c-0.009-6.792,2.685-13.309,7.488-18.112
			c4.803-4.803,11.32-7.497,18.112-7.488h392.533c6.792-0.009,13.309,2.685,18.112,7.488
			C474.182,147.824,476.876,154.341,476.867,161.133z"/>
		<path style="fill:#607D8B;" d="M451.267,161.133v307.2H33.133l0-307.2c-0.009-6.792,2.685-13.309,7.488-18.112
			c4.803-4.803,11.32-7.497,18.112-7.488h366.933c6.792-0.009,13.309,2.685,18.112,7.488
			C448.582,147.824,451.276,154.341,451.267,161.133z"/>
		<polygon style="fill:#2296F3;" points="268.312,118.467 299.288,93.387 246.381,34.499 212.333,50.2 251.075,93.387 
			220.867,117.52 221.72,118.467 		"/>
		<path style="fill:#FFEB3A;" d="M400.067,255c23.564,0,42.667-19.103,42.667-42.667s-19.103-42.667-42.667-42.667H109.933
			c-23.564,0-42.667,19.103-42.667,42.667S86.369,255,109.933,255H400.067z"/>
		<path style="fill:#0377BC;" d="M289.133,297.667c9.426,0,17.067,7.641,17.067,17.067c0,9.426-7.641,17.067-17.067,17.067
			c9.426,0,17.067,7.641,17.067,17.067c0,9.426-7.641,17.067-17.067,17.067h85.333c6.792-0.009,13.309,2.685,18.112,7.488
			c4.803,4.803,7.497,11.32,7.488,18.112v59.733H109.933l0-59.733c-0.009-6.792,2.685-13.309,7.488-18.112
			c4.803-4.803,11.32-7.497,18.112-7.488h84.736c-9.189-0.327-16.469-7.872-16.469-17.067c0-9.195,7.28-16.739,16.469-17.067
			c-9.305-0.328-16.631-8.051-16.468-17.36c0.163-9.309,7.755-16.771,17.066-16.773h-85.333c-6.792,0.009-13.309-2.685-18.112-7.488
			c-4.803-4.803-7.497-11.32-7.488-18.112V135.533c-0.009-6.792,2.685-13.309,7.488-18.112c4.803-4.803,11.32-7.497,18.112-7.488
			h238.933c6.792-0.009,13.309,2.685,18.112,7.488c4.803,4.803,7.497,11.32,7.488,18.112v136.533
			c0.009,6.792-2.685,13.309-7.488,18.112c-4.803,4.803-11.32,7.497-18.112,7.488H289.133z"/>
		<path style="fill:#02A9F4;" d="M264.387,297.667c9.086,0.466,16.214,7.969,16.214,17.067c0,9.098-7.128,16.601-16.214,17.067
			c9.25,0.468,16.44,8.224,16.209,17.483c-0.231,9.259-7.801,16.645-17.062,16.651h85.333c6.792-0.009,13.309,2.685,18.112,7.488
			c4.803,4.803,7.497,11.32,7.488,18.112v59.733H109.933l0-59.733c-0.009-6.792,2.685-13.309,7.488-18.112
			c4.803-4.803,11.32-7.497,18.112-7.488h84.565c-0.065-0.009-0.125-0.039-0.171-0.085c-0.832,0.004-1.661-0.082-2.475-0.256
			c-1.888-0.398-3.702-1.089-5.376-2.048l-1.024-0.768c-1.248-0.863-2.368-1.897-3.328-3.072c-0.617-0.741-1.161-1.542-1.621-2.389
			c-0.482-0.751-0.883-1.552-1.195-2.389c-0.414-1.101-0.7-2.247-0.853-3.413c-0.342-1.747-0.342-3.544,0-5.291
			c0.153-1.167,0.439-2.312,0.853-3.413c0.312-0.837,0.712-1.638,1.195-2.389v-0.085c0.471-0.815,1.013-1.586,1.621-2.304
			c0.423-0.594,0.942-1.113,1.536-1.536c0.211-0.297,0.471-0.557,0.768-0.768c0.32-0.283,0.663-0.54,1.024-0.768l1.024-0.768
			c1.674-0.959,3.488-1.65,5.376-2.048c0.698-0.174,1.414-0.26,2.133-0.256c0.043,0.169,0.206,0.28,0.379,0.259
			c0.173-0.022,0.304-0.169,0.304-0.344c0-0.175-0.13-0.322-0.304-0.344c-0.174-0.022-0.336,0.089-0.379,0.259
			c-0.663,0.005-1.323-0.082-1.963-0.256c-1.949-0.374-3.823-1.066-5.547-2.048l-1.024-0.768c-1.248-0.863-2.368-1.897-3.328-3.072
			c-0.608-0.718-1.151-1.489-1.621-2.304v-0.085c-0.482-0.751-0.883-1.552-1.195-2.389c-0.414-1.101-0.7-2.247-0.853-3.413
			c-0.174-0.871-0.26-1.757-0.256-2.645c0.027-9.414,7.652-17.039,17.067-17.067h-85.333c-6.792,0.009-13.309-2.685-18.112-7.488
			c-4.803-4.803-7.497-11.32-7.488-18.112V135.533c-0.009-6.792,2.685-13.309,7.488-18.112c4.803-4.803,11.32-7.497,18.112-7.488
			h213.333c6.792-0.009,13.309,2.685,18.112,7.488c4.803,4.803,7.497,11.32,7.488,18.112v136.533
			c0.009,6.792-2.685,13.309-7.488,18.112c-4.803,4.803-11.32,7.497-18.112,7.488H264.387z"/>
		<path style="fill:#1566C0;" d="M306.2,348.867c-0.028,9.414-7.653,17.039-17.067,17.067h-25.6
			c9.262-0.005,16.831-7.392,17.062-16.651c0.231-9.259-6.959-17.014-16.209-17.483c9.086-0.466,16.214-7.969,16.214-17.067
			c0-9.098-7.128-16.601-16.214-17.067h24.747c9.426,0,17.067,7.641,17.067,17.067c0,9.426-7.641,17.067-17.067,17.067
			C298.548,331.828,306.173,339.453,306.2,348.867z"/>
		<path style="fill:#2296F3;" d="M280.6,348.867c-0.028,9.414-7.652,17.039-17.067,17.067h-43.435
			c-0.065-0.009-0.125-0.039-0.171-0.085c-0.832,0.004-1.661-0.082-2.475-0.256c-1.888-0.398-3.702-1.089-5.376-2.048l-1.024-0.768
			c-1.248-0.863-2.368-1.897-3.328-3.072c-0.617-0.741-1.161-1.542-1.621-2.389c-0.482-0.751-0.883-1.552-1.195-2.389
			c-0.414-1.101-0.7-2.247-0.853-3.413c-0.342-1.747-0.342-3.544,0-5.291c0.153-1.167,0.439-2.312,0.853-3.413
			c0.312-0.837,0.712-1.638,1.195-2.389v-0.085c0.471-0.815,1.013-1.586,1.621-2.304c0.423-0.594,0.942-1.113,1.536-1.536
			c0.211-0.297,0.471-0.557,0.768-0.768c0.32-0.283,0.663-0.54,1.024-0.768l1.024-0.768c1.674-0.959,3.488-1.65,5.376-2.048
			c0.698-0.174,1.414-0.26,2.133-0.256c0.043,0.169,0.206,0.28,0.379,0.259c0.173-0.022,0.304-0.169,0.304-0.344
			s-0.13-0.322-0.304-0.344c-0.174-0.022-0.336,0.089-0.379,0.259c-0.663,0.005-1.323-0.082-1.963-0.256
			c-1.949-0.374-3.823-1.066-5.547-2.048l-1.024-0.768c-1.248-0.863-2.368-1.897-3.328-3.072c-0.608-0.718-1.151-1.489-1.621-2.304
			v-0.085c-0.482-0.751-0.883-1.552-1.195-2.389c-0.414-1.101-0.7-2.247-0.853-3.413c-0.174-0.871-0.26-1.757-0.256-2.645
			c0.027-9.414,7.652-17.039,17.067-17.067h43.52c9.086,0.466,16.214,7.969,16.214,17.067c0,9.098-7.128,16.601-16.214,17.067
			C273.451,332.314,280.552,339.789,280.6,348.867z"/>
		<g>
			<path style="fill:#FFEB3A;" d="M178.2,144.067h17.067c9.426,0,17.067,7.641,17.067,17.067V178.2
				c0,9.426-7.641,17.067-17.067,17.067H178.2c-9.426,0-17.067-7.641-17.067-17.067v-17.067
				C161.133,151.708,168.774,144.067,178.2,144.067z"/>
			<path style="fill:#FFEB3A;" d="M314.733,144.067H331.8c9.426,0,17.067,7.641,17.067,17.067V178.2
				c0,9.426-7.641,17.067-17.067,17.067h-17.067c-9.426,0-17.067-7.641-17.067-17.067v-17.067
				C297.667,151.708,305.308,144.067,314.733,144.067z"/>
			<circle style="fill:#FFEB3A;" cx="220.867" cy="33.133" r="25.6"/>
		</g>
		<g>
			<rect x="161.133" y="263.533" style="fill:#F5F5F5;" width="187.733" height="34.133"/>
			<path style="fill:#F5F5F5;" d="M348.867,246.467v17.067H161.133v-17.067c0.028-9.414,7.652-17.039,17.067-17.067h153.6
				C341.214,229.428,348.839,237.053,348.867,246.467z"/>
		</g>
		<path style="fill:#FDD834;" d="M365.933,417.133v76.8H144.067v-76.8c0.028-9.414,7.652-17.039,17.067-17.067h187.733
			C358.281,400.094,365.906,407.719,365.933,417.133z"/>
		<path style="fill:#FFEB3A;" d="M340.333,417.133v76.8H144.067v-76.8c0.028-9.414,7.652-17.039,17.067-17.067h162.133
			C332.681,400.094,340.306,407.719,340.333,417.133z"/>
		<g>
			<path style="fill:#2296F3;" d="M109.933,400.067v51.2H67.267v-8.533C67.275,419.173,86.373,400.075,109.933,400.067z"/>
			<path style="fill:#2296F3;" d="M442.733,442.733v8.533h-42.667v-51.2C423.627,400.075,442.725,419.173,442.733,442.733z"/>
		</g>
		<path style="fill:#CFD8DC;" d="M502.467,476.867v17.067c-0.014,4.707-3.826,8.52-8.533,8.533H16.067
			c-4.707-0.014-8.52-3.826-8.533-8.533v-17.067c0-14.138,11.462-25.6,25.6-25.6h162.133c4.713,0,8.533,3.821,8.533,8.533
			c0,4.713,3.821,8.533,8.533,8.533H306.2c4.713,0,8.533-3.821,8.533-8.533c0-4.713,3.82-8.533,8.533-8.533h153.6
			C491.005,451.267,502.467,462.728,502.467,476.867z"/>
		<path style="fill:#607D8B;" d="M502.467,476.867v17.067c-0.014,4.707-3.826,8.519-8.533,8.533h-25.6
			c4.707-0.014,8.519-3.826,8.533-8.533v-17.067c0.009-6.792-2.685-13.309-7.488-18.112c-4.803-4.803-11.32-7.497-18.112-7.488h25.6
			c6.792-0.009,13.309,2.685,18.112,7.488C499.782,463.558,502.476,470.074,502.467,476.867z"/>
	</g>
	<g>
		<path d="M179.2,204.8h17.067c14.132-0.015,25.585-11.468,25.6-25.6v-17.067c-0.015-14.132-11.468-25.585-25.6-25.6H179.2
			c-14.132,0.015-25.585,11.468-25.6,25.6V179.2C153.615,193.332,165.068,204.785,179.2,204.8z M170.667,162.133
			c0.006-4.71,3.823-8.527,8.533-8.533h17.067c4.71,0.006,8.527,3.823,8.533,8.533V179.2c-0.006,4.71-3.823,8.527-8.533,8.533H179.2
			c-4.71-0.006-8.527-3.823-8.533-8.533V162.133z"/>
		<path d="M315.733,204.8H332.8c14.132-0.015,25.585-11.468,25.6-25.6v-17.067c-0.015-14.132-11.468-25.585-25.6-25.6h-17.067
			c-14.132,0.015-25.585,11.468-25.6,25.6V179.2C290.149,193.332,301.601,204.785,315.733,204.8z M307.2,162.133
			c0.006-4.71,3.823-8.527,8.533-8.533H332.8c4.71,0.006,8.527,3.823,8.533,8.533V179.2c-0.006,4.71-3.823,8.527-8.533,8.533
			h-17.067c-4.71-0.006-8.527-3.823-8.533-8.533V162.133z"/>
		<path d="M486.4,444.945V162.133c-0.022-18.842-15.291-34.112-34.133-34.133h-43.878c-3.869-15.031-17.401-25.553-32.922-25.6
			h-79.914l9.756-7.096c2.018-1.468,3.293-3.745,3.488-6.233c0.195-2.488-0.71-4.936-2.475-6.7l-50.555-50.555
			c-1.198-18.188-16.505-32.208-34.728-31.807c-18.223,0.401-32.899,15.08-33.296,33.303c-0.397,18.223,13.626,33.528,31.815,34.721
			l19.365,19.309l-20.99,15.058h-81.398c-15.521,0.047-29.052,10.569-32.922,25.6H59.733c-18.842,0.022-34.112,15.291-34.133,34.133
			v282.812C10.569,448.814,0.047,462.346,0,477.867v17.067c0.009,9.422,7.645,17.057,17.067,17.067h477.867
			c9.422-0.009,17.057-7.645,17.067-17.067v-17.067C511.953,462.346,501.431,448.814,486.4,444.945z M469.333,162.133v281.6h-17.067
			c-0.042-24.958-18.061-46.254-42.667-50.429v-0.771c-0.022-18.842-15.291-34.112-34.133-34.133h-61.306
			c3.296-8.807,1.326-18.721-5.086-25.6c6.412-6.879,8.382-16.793,5.086-25.6h61.306c18.842-0.022,34.112-15.291,34.133-34.133
			v-9.304c24.628-4.136,42.667-25.456,42.667-50.429s-18.038-46.293-42.667-50.429v-17.837h42.667
			C461.688,145.076,469.324,152.712,469.333,162.133z M409.6,443.733v-32.922c15.031,3.869,25.553,17.401,25.6,32.922H409.6z
			 M324.267,443.733c-9.422,0.009-17.057,7.645-17.067,17.067h-93.867c-0.009-9.422-7.645-17.057-17.067-17.067H153.6v-25.6
			c0.006-4.71,3.823-8.527,8.533-8.533h187.733c4.71,0.006,8.527,3.823,8.533,8.533v25.6H324.267z M349.867,392.533H162.133
			c-14.132,0.015-25.585,11.468-25.6,25.6v25.6h-17.067v-51.2c0.009-9.422,7.645-17.057,17.067-17.067h238.933
			c9.422,0.009,17.057,7.645,17.067,17.067v51.2h-17.067v-25.6C375.451,404.001,363.999,392.549,349.867,392.533z M102.4,443.733
			H76.8c0.047-15.521,10.569-29.052,25.6-32.922V443.733z M341.333,256H170.667v-8.533c0.006-4.71,3.823-8.527,8.533-8.533h153.6
			c4.71,0.006,8.527,3.823,8.533,8.533V256z M170.667,273.067h170.667v17.067H170.667V273.067z M213.333,349.867
			c0.006-4.71,3.823-8.527,8.533-8.533c4.713,0,8.533-3.821,8.533-8.533s-3.821-8.533-8.533-8.533s-8.533-3.82-8.533-8.533
			s3.821-8.533,8.533-8.533h68.267c4.713,0,8.533,3.821,8.533,8.533s-3.821,8.533-8.533,8.533s-8.533,3.82-8.533,8.533
			s3.82,8.533,8.533,8.533s8.533,3.82,8.533,8.533s-3.821,8.533-8.533,8.533h-68.267
			C217.156,358.394,213.339,354.577,213.333,349.867z M409.6,180.412c15.059,3.827,25.601,17.384,25.601,32.922
			s-10.542,29.094-25.601,32.922V180.412z M204.8,34.133c0-9.426,7.641-17.067,17.067-17.067s17.067,7.641,17.067,17.067
			S231.292,51.2,221.867,51.2C212.445,51.191,204.809,43.555,204.8,34.133z M258.1,82.363l-18.995-18.938
			c4.978-2.938,9.129-7.092,12.064-12.072l36.022,36.022L266.537,102.4h-19.331l9.844-7.063c2.036-1.462,3.327-3.746,3.529-6.244
			C260.781,86.594,259.874,84.133,258.1,82.363L258.1,82.363z M136.533,119.467h238.933c9.422,0.009,17.057,7.645,17.067,17.067
			v136.533c-0.009,9.422-7.645,17.057-17.067,17.067H358.4v-42.667c-0.015-14.132-11.468-25.585-25.6-25.6H179.2
			c-14.132,0.015-25.585,11.468-25.6,25.6v42.667h-17.067c-9.422-0.009-17.057-7.645-17.067-17.067V136.533
			C119.476,127.112,127.112,119.476,136.533,119.467z M102.4,246.255c-15.059-3.827-25.601-17.384-25.601-32.922
			s10.542-29.094,25.601-32.922V246.255z M42.667,162.133c0.009-9.422,7.645-17.057,17.067-17.067H102.4v17.837
			c-24.628,4.136-42.667,25.456-42.667,50.429s18.038,46.293,42.667,50.429v9.304c0.022,18.842,15.291,34.112,34.133,34.133h61.306
			c-3.296,8.807-1.326,18.721,5.086,25.6c-6.413,6.879-8.382,16.793-5.085,25.6h-61.306c-18.842,0.022-34.112,15.291-34.133,34.133
			v0.771c-24.606,4.175-42.624,25.472-42.667,50.429H42.667V162.133z M494.933,494.933H17.067v-17.067
			c0.009-9.422,7.645-17.057,17.067-17.067h162.133c0.009,9.422,7.645,17.057,17.067,17.067H307.2
			c9.422-0.009,17.057-7.645,17.067-17.067h153.6c9.422,0.009,17.057,7.645,17.067,17.067V494.933z"/>
	</g>
</g>
<g>
</g>
<g>
</g>
<g>
</g>
<g>
</g>
<g>
</g>
<g>
</g>
<g>
</g>
<g>
</g>
<g>
</g>
<g>
</g>
<g>
</g>
<g>
</g>
<g>
</g>
<g>
</g>
<g>
</g>
</svg>
