<?xml version="1.0" encoding="iso-8859-1"?>
<!-- Generator: Adobe Illustrator 19.0.0, SVG Export Plug-In . SVG Version: 6.00 Build 0)  -->
<svg version="1.1" id="Capa_1" xmlns="http://www.w3.org/2000/svg" xmlns:xlink="http://www.w3.org/1999/xlink" x="0px" y="0px"
	 viewBox="0 0 512 512" style="enable-background:new 0 0 512 512;" xml:space="preserve">
<g>
	<g transform="translate(1 1)">
		<polygon style="fill:#2296F3;" points="208.579,220.867 239.555,195.787 186.648,136.899 152.6,152.6 191.341,195.787 
			161.133,219.919 161.987,220.867 		"/>
		<path style="fill:#FFEB3A;" d="M340.333,348.867c23.564,0,42.667-19.103,42.667-42.667c0-23.564-19.103-42.667-42.667-42.667H50.2
			c-23.564,0-42.667,19.103-42.667,42.667c0,23.564,19.103,42.667,42.667,42.667H340.333z"/>
		<path style="fill:#0377BC;" d="M229.4,400.067c9.426,0,17.067,7.641,17.067,17.067c0,9.426-7.641,17.067-17.067,17.067
			c9.426,0,17.067,7.641,17.067,17.067c0,9.426-7.641,17.067-17.067,17.067h85.333c6.792-0.009,13.309,2.685,18.112,7.488
			c4.803,4.803,7.497,11.32,7.488,18.112v8.533H50.2l0-8.533c-0.009-6.792,2.685-13.309,7.488-18.112s11.32-7.497,18.112-7.488
			h84.736c-9.189-0.327-16.469-7.872-16.469-17.067c0-9.195,7.28-16.739,16.469-17.067c-9.305-0.328-16.631-8.051-16.468-17.36
			c0.163-9.309,7.755-16.771,17.066-16.773H75.8c-6.792,0.009-13.309-2.685-18.112-7.488c-4.803-4.803-7.497-11.32-7.488-18.112
			V237.933c-0.009-6.792,2.685-13.309,7.488-18.112c4.803-4.803,11.32-7.497,18.112-7.488h238.933
			c6.792-0.009,13.309,2.685,18.112,7.488c4.803,4.803,7.497,11.32,7.488,18.112v136.533c0.009,6.792-2.685,13.309-7.488,18.112
			c-4.803,4.803-11.32,7.497-18.112,7.488H229.4z"/>
		<path style="fill:#02A9F4;" d="M204.653,400.067c9.086,0.466,16.214,7.969,16.214,17.067c0,9.098-7.128,16.601-16.214,17.067
			c9.25,0.468,16.44,8.224,16.209,17.483s-7.801,16.645-17.062,16.651h85.333c6.792-0.009,13.309,2.685,18.112,7.488
			c4.803,4.803,7.497,11.32,7.488,18.112v8.533H50.2l0-8.533c-0.009-6.792,2.685-13.309,7.488-18.112s11.32-7.497,18.112-7.488
			h84.565c-0.065-0.009-0.125-0.039-0.171-0.085c-0.832,0.004-1.661-0.082-2.475-0.256c-1.888-0.398-3.702-1.089-5.376-2.048
			l-1.024-0.768c-1.248-0.863-2.368-1.897-3.328-3.072c-0.617-0.741-1.161-1.542-1.621-2.389c-0.482-0.751-0.883-1.552-1.195-2.389
			c-0.414-1.101-0.7-2.247-0.853-3.413c-0.342-1.747-0.342-3.544,0-5.291c0.153-1.167,0.439-2.312,0.853-3.413
			c0.312-0.837,0.712-1.638,1.195-2.389v-0.085c0.471-0.815,1.013-1.586,1.621-2.304c0.423-0.594,0.942-1.113,1.536-1.536
			c0.211-0.297,0.471-0.557,0.768-0.768c0.32-0.283,0.663-0.54,1.024-0.768l1.024-0.768c1.674-0.959,3.488-1.65,5.376-2.048
			c0.698-0.174,1.414-0.26,2.133-0.256c0.043,0.169,0.206,0.28,0.379,0.259c0.174-0.022,0.304-0.169,0.304-0.344
			c0-0.175-0.13-0.322-0.304-0.344c-0.173-0.022-0.336,0.089-0.379,0.259c-0.663,0.005-1.323-0.082-1.963-0.256
			c-1.949-0.374-3.823-1.066-5.547-2.048l-1.024-0.768c-1.248-0.863-2.368-1.897-3.328-3.072c-0.608-0.718-1.151-1.489-1.621-2.304
			v-0.085c-0.482-0.751-0.883-1.552-1.195-2.389c-0.414-1.101-0.7-2.247-0.853-3.413c-0.174-0.871-0.26-1.757-0.256-2.645
			c0.028-9.414,7.652-17.039,17.067-17.067H75.8c-6.792,0.009-13.309-2.685-18.112-7.488c-4.803-4.803-7.497-11.32-7.488-18.112
			V237.933c-0.009-6.792,2.685-13.309,7.488-18.112c4.803-4.803,11.32-7.497,18.112-7.488h213.333
			c6.792-0.009,13.309,2.685,18.112,7.488c4.803,4.803,7.497,11.32,7.488,18.112v136.533c0.009,6.792-2.685,13.309-7.488,18.112
			c-4.803,4.803-11.32,7.497-18.112,7.488H204.653z"/>
		<path style="fill:#1566C0;" d="M246.467,451.267c-0.028,9.414-7.652,17.039-17.067,17.067h-25.6
			c9.262-0.005,16.831-7.392,17.062-16.651c0.231-9.259-6.959-17.014-16.209-17.483c9.086-0.466,16.214-7.969,16.214-17.067
			c0-9.098-7.128-16.601-16.214-17.067H229.4c9.426,0,17.067,7.641,17.067,17.067S238.826,434.2,229.4,434.2
			C238.814,434.228,246.439,441.852,246.467,451.267z"/>
		<path style="fill:#2296F3;" d="M220.867,451.267c-0.028,9.414-7.653,17.039-17.067,17.067h-43.435
			c-0.065-0.009-0.125-0.039-0.171-0.085c-0.832,0.004-1.661-0.082-2.475-0.256c-1.888-0.398-3.702-1.089-5.376-2.048l-1.024-0.768
			c-1.248-0.863-2.368-1.897-3.328-3.072c-0.617-0.741-1.161-1.542-1.621-2.389c-0.482-0.751-0.883-1.552-1.195-2.389
			c-0.414-1.101-0.7-2.247-0.853-3.413c-0.342-1.747-0.342-3.544,0-5.291c0.153-1.167,0.439-2.312,0.853-3.413
			c0.312-0.837,0.712-1.638,1.195-2.389v-0.085c0.471-0.815,1.013-1.586,1.621-2.304c0.423-0.594,0.942-1.113,1.536-1.536
			c0.211-0.297,0.471-0.557,0.768-0.768c0.32-0.283,0.663-0.54,1.024-0.768l1.024-0.768c1.674-0.959,3.488-1.65,5.376-2.048
			c0.698-0.174,1.414-0.26,2.133-0.256c0.043,0.169,0.206,0.28,0.379,0.259c0.174-0.022,0.304-0.169,0.304-0.344
			s-0.13-0.322-0.304-0.344c-0.173-0.022-0.336,0.089-0.379,0.259c-0.663,0.005-1.323-0.082-1.963-0.256
			c-1.949-0.374-3.823-1.066-5.547-2.048l-1.024-0.768c-1.248-0.863-2.368-1.897-3.328-3.072c-0.608-0.718-1.151-1.489-1.621-2.304
			v-0.085c-0.482-0.751-0.883-1.552-1.195-2.389c-0.414-1.101-0.7-2.247-0.853-3.413c-0.174-0.871-0.26-1.757-0.256-2.645
			c0.028-9.414,7.652-17.039,17.067-17.067h43.52c9.086,0.466,16.214,7.969,16.214,17.067c0,9.098-7.128,16.601-16.214,17.067
			C213.717,434.714,220.818,442.188,220.867,451.267z"/>
		<path style="fill:#0377BC;" d="M340.333,493.933l0,8.533h-25.6v-8.533c0.009-6.792-2.685-13.309-7.488-18.112
			c-4.803-4.803-11.32-7.497-18.112-7.488h25.6c6.792-0.009,13.309,2.685,18.112,7.488
			C337.648,480.624,340.342,487.141,340.333,493.933z"/>
		<path style="fill:#02A9F4;" d="M314.733,493.933v8.533H50.2l0-8.533c-0.009-6.792,2.685-13.309,7.488-18.112
			s11.32-7.497,18.112-7.488h213.333c6.792-0.009,13.309,2.685,18.112,7.488C312.048,480.624,314.742,487.141,314.733,493.933z"/>
		<g>
			<path style="fill:#FFEB3A;" d="M118.467,246.467h17.067c9.426,0,17.067,7.641,17.067,17.067V280.6
				c0,9.426-7.641,17.067-17.067,17.067h-17.067c-9.426,0-17.067-7.641-17.067-17.067v-17.067
				C101.4,254.108,109.041,246.467,118.467,246.467z"/>
			<path style="fill:#FFEB3A;" d="M255,246.467h17.067c9.426,0,17.067,7.641,17.067,17.067V280.6
				c0,9.426-7.641,17.067-17.067,17.067H255c-9.426,0-17.067-7.641-17.067-17.067v-17.067
				C237.933,254.108,245.574,246.467,255,246.467z"/>
			<circle style="fill:#FFEB3A;" cx="161.133" cy="135.533" r="25.6"/>
		</g>
		<path style="fill:#F44335;" d="M502.467,16.067V169.65c0,4.713-3.821,8.533-8.533,8.533H459.8l-35.84,56.32
			c-2.204,2.938-6.041,4.137-9.525,2.975c-3.485-1.161-5.835-4.422-5.835-8.095v-51.2H289.133c-4.713,0-8.533-3.821-8.533-8.533
			V16.067c0-4.713,3.821-8.533,8.533-8.533h204.8C498.646,7.533,502.467,11.354,502.467,16.067z"/>
		<g>
			<rect x="101.4" y="365.933" style="fill:#F5F5F5;" width="187.733" height="34.133"/>
			<path style="fill:#F5F5F5;" d="M289.133,348.867v17.067H101.4v-17.067c0.028-9.414,7.652-17.039,17.067-17.067h153.6
				C281.481,331.828,289.106,339.452,289.133,348.867z"/>
		</g>
		<path style="fill:#C52828;" d="M502.467,16.067v153.6c-0.014,4.707-3.826,8.519-8.533,8.533h-25.6
			c4.707-0.014,8.519-3.826,8.533-8.533v-153.6c-0.014-4.707-3.826-8.519-8.533-8.533h25.6
			C498.64,7.547,502.453,11.36,502.467,16.067z"/>
	</g>
	<g>
		<path d="M119.467,307.2h17.067c14.132-0.015,25.585-11.468,25.6-25.6v-17.067c-0.015-14.132-11.468-25.585-25.6-25.6h-17.067
			c-14.132,0.015-25.585,11.468-25.6,25.6V281.6C93.882,295.732,105.335,307.185,119.467,307.2z M110.933,264.533
			c0.006-4.71,3.823-8.527,8.533-8.533h17.067c4.71,0.006,8.527,3.823,8.533,8.533V281.6c-0.006,4.71-3.823,8.527-8.533,8.533
			h-17.067c-4.71-0.006-8.527-3.823-8.533-8.533V264.533z"/>
		<path d="M256,307.2h17.067c14.132-0.015,25.585-11.468,25.6-25.6v-17.067c-0.015-14.132-11.468-25.585-25.6-25.6H256
			c-14.132,0.015-25.585,11.468-25.6,25.6V281.6C230.415,295.732,241.868,307.185,256,307.2z M247.467,264.533
			c0.006-4.71,3.823-8.527,8.533-8.533h17.067c4.71,0.006,8.527,3.823,8.533,8.533V281.6c-0.006,4.71-3.823,8.527-8.533,8.533H256
			c-4.71-0.006-8.527-3.823-8.533-8.533V264.533z"/>
		<path d="M42.667,357.629v17.837c0.022,18.842,15.291,34.112,34.133,34.133h61.306c-3.296,8.807-1.326,18.721,5.086,25.6
			c-6.413,6.879-8.382,16.793-5.085,25.6H76.8c-18.842,0.022-34.112,15.291-34.133,34.133v8.533c0,4.713,3.821,8.533,8.533,8.533
			h289.421c0.127,0,0.231-0.067,0.356-0.072c0.125,0.005,0.23,0.072,0.356,0.072c4.713,0,8.533-3.82,8.533-8.533v-8.533
			c-0.022-18.842-15.291-34.112-34.133-34.133h-61.306c3.296-8.807,1.326-18.721-5.086-25.6c6.412-6.879,8.382-16.793,5.086-25.6
			h61.306c18.842-0.022,34.112-15.291,34.133-34.133v-17.837c24.628-4.136,42.667-25.456,42.667-50.429
			s-18.038-46.293-42.667-50.429v-17.837c-0.022-18.842-15.291-34.112-34.133-34.133h-79.914l9.756-7.096
			c2.018-1.468,3.293-3.745,3.487-6.233c0.195-2.488-0.71-4.936-2.475-6.7l-50.555-50.555
			c-1.198-18.188-16.505-32.208-34.728-31.807s-32.899,15.08-33.296,33.303c-0.397,18.223,13.626,33.528,31.815,34.721
			l19.365,19.309l-20.99,15.058H76.8c-18.842,0.022-34.112,15.291-34.133,34.133v17.837C18.038,260.907,0,282.227,0,307.2
			S18.038,353.493,42.667,357.629z M281.6,358.4H110.933v-8.533c0.006-4.71,3.823-8.527,8.533-8.533h153.6
			c4.71,0.006,8.527,3.823,8.533,8.533V358.4z M110.933,375.467H281.6v17.067H110.933V375.467z M332.8,494.933H59.733
			c0.009-9.422,7.645-17.057,17.067-17.067h238.933C325.155,477.876,332.791,485.512,332.8,494.933z M238.933,418.133
			c-0.006,4.71-3.823,8.527-8.533,8.533c-4.713,0-8.533,3.82-8.533,8.533s3.82,8.533,8.533,8.533s8.533,3.82,8.533,8.533
			s-3.821,8.533-8.533,8.533h-68.267c-4.713,0-8.533-3.82-8.533-8.533s3.821-8.533,8.533-8.533c4.713,0,8.533-3.821,8.533-8.533
			s-3.821-8.533-8.533-8.533c-4.713,0-8.533-3.82-8.533-8.533s3.821-8.533,8.533-8.533H230.4
			C235.11,409.606,238.927,413.423,238.933,418.133z M375.467,307.2c-0.047,15.521-10.569,29.052-25.6,32.922v-65.843
			C364.898,278.148,375.42,291.679,375.467,307.2z M145.067,136.533c0-9.426,7.641-17.067,17.067-17.067
			c9.426,0,17.067,7.641,17.067,17.067c0,9.426-7.641,17.067-17.067,17.067C152.712,153.591,145.076,145.955,145.067,136.533z
			 M198.367,184.763l-18.995-18.938c4.978-2.938,9.129-7.092,12.064-12.072l36.022,36.022L206.804,204.8h-19.331l9.844-7.063
			c2.036-1.462,3.327-3.746,3.529-6.244S200.141,186.533,198.367,184.763L198.367,184.763z M59.733,238.933
			c0.009-9.422,7.645-17.057,17.067-17.067h238.933c9.422,0.009,17.057,7.645,17.067,17.067v136.533
			c-0.009,9.422-7.645,17.057-17.067,17.067h-17.067v-42.667c-0.015-14.132-11.468-25.585-25.6-25.6h-153.6
			c-14.132,0.015-25.585,11.468-25.6,25.6v42.667H76.8c-9.422-0.009-17.057-7.645-17.067-17.067V238.933z M42.667,274.278v65.843
			c-15.059-3.827-25.601-17.384-25.601-32.922S27.608,278.106,42.667,274.278z"/>
		<path d="M290.133,187.717h110.933v42.667c-0.073,7.37,4.656,13.93,11.671,16.192c7.196,2.446,15.14-0.208,19.421-6.488
			l33.325-52.371h29.45c9.422-0.009,17.057-7.645,17.067-17.067V17.067C511.991,7.645,504.355,0.009,494.933,0h-204.8
			c-9.422,0.009-17.057,7.645-17.067,17.067V170.65C273.076,180.072,280.712,187.707,290.133,187.717z M290.133,17.067l204.8-0.012
			V170.65H460.8c-2.917,0.001-5.632,1.49-7.2,3.95l-35.467,55.783v-51.2c0-4.713-3.821-8.533-8.533-8.533H290.133V17.067z"/>
		<path d="M401.067,68.267V51.2c-0.009-9.422-7.645-17.057-17.067-17.067h-17.067c-9.422,0.009-17.057,7.645-17.067,17.067v17.067
			c0.009,9.422,7.645,17.057,17.067,17.067H384C393.422,85.324,401.057,77.688,401.067,68.267z M366.933,51.2H384l0.012,17.067
			h-17.079V51.2z"/>
		<path d="M435.2,136.533v-17.067c-0.009-9.422-7.645-17.057-17.067-17.067h-17.067c-9.422,0.009-17.057,7.645-17.067,17.067v17.067
			c0.009,9.422,7.645,17.057,17.067,17.067h17.067C427.555,153.591,435.191,145.955,435.2,136.533z M401.067,119.467h17.067
			l0.012,17.067h-17.079V119.467z"/>
		<path d="M324.267,34.133c-4.713,0-8.533,3.821-8.533,8.533V76.8c0,4.713,3.821,8.533,8.533,8.533s8.533-3.82,8.533-8.533V42.667
			C332.8,37.954,328.98,34.133,324.267,34.133z"/>
		<path d="M426.667,85.333c4.713,0,8.533-3.82,8.533-8.533V42.667c0-4.713-3.82-8.533-8.533-8.533s-8.533,3.821-8.533,8.533V76.8
			C418.133,81.513,421.954,85.333,426.667,85.333z"/>
		<path d="M460.8,85.333c4.713,0,8.533-3.82,8.533-8.533V42.667c0-4.713-3.82-8.533-8.533-8.533s-8.533,3.821-8.533,8.533V76.8
			C452.267,81.513,456.087,85.333,460.8,85.333z"/>
		<path d="M460.8,153.6c4.713,0,8.533-3.821,8.533-8.533v-34.133c0-4.713-3.82-8.533-8.533-8.533s-8.533,3.821-8.533,8.533v34.133
			C452.267,149.779,456.087,153.6,460.8,153.6z"/>
		<path d="M358.4,102.4c-4.713,0-8.533,3.821-8.533,8.533v34.133c0,4.713,3.821,8.533,8.533,8.533s8.533-3.821,8.533-8.533v-34.133
			C366.933,106.221,363.113,102.4,358.4,102.4z"/>
		<path d="M324.267,102.4c-4.713,0-8.533,3.821-8.533,8.533v34.133c0,4.713,3.821,8.533,8.533,8.533s8.533-3.821,8.533-8.533
			v-34.133C332.8,106.221,328.98,102.4,324.267,102.4z"/>
	</g>
</g>
<g>
</g>
<g>
</g>
<g>
</g>
<g>
</g>
<g>
</g>
<g>
</g>
<g>
</g>
<g>
</g>
<g>
</g>
<g>
</g>
<g>
</g>
<g>
</g>
<g>
</g>
<g>
</g>
<g>
</g>
</svg>
