<?xml version="1.0" encoding="iso-8859-1"?>
<!-- Generator: Adobe Illustrator 19.0.0, SVG Export Plug-In . SVG Version: 6.00 Build 0)  -->
<svg version="1.1" id="Capa_1" xmlns="http://www.w3.org/2000/svg" xmlns:xlink="http://www.w3.org/1999/xlink" x="0px" y="0px"
	 viewBox="0 0 512 512" style="enable-background:new 0 0 512 512;" xml:space="preserve">
<g>
	<g transform="translate(1 1)">
		<path style="fill:#00BCD4;" d="M485.4,212.333v34.133c-0.014,4.707-3.826,8.519-8.533,8.533h-44.544
			c-0.926,6.522-2.208,12.988-3.84,19.371h-81.408c20.953-43.053,9.274-94.878-28.119-124.782s-90.518-29.905-127.911,0
			s-49.072,81.73-28.119,124.782H81.517c-1.632-6.382-2.914-12.849-3.84-19.371H33.133c-4.707-0.014-8.519-3.826-8.533-8.533
			v-34.133c0.014-4.707,3.826-8.519,8.533-8.533h44.544c4.186-29.65,15.779-57.766,33.707-81.749L86.04,96.707
			c-3.328-3.354-3.328-8.764,0-12.117l24.149-24.149c3.354-3.328,8.764-3.328,12.117,0l25.344,25.344h0.085
			c23.96-17.913,52.045-29.504,81.664-33.707V16.067c0.014-4.707,3.826-8.519,8.533-8.533h34.133
			c4.707,0.014,8.519,3.826,8.533,8.533v36.011c29.65,4.186,57.766,15.779,81.749,33.707l25.344-25.344
			c3.354-3.328,8.764-3.328,12.117,0l24.149,24.149c3.328,3.354,3.328,8.764,0,12.117l-25.344,25.344v0.085
			c17.913,23.96,29.504,52.045,33.707,81.664h44.544C481.574,203.814,485.386,207.626,485.4,212.333z"/>
		<polygon style="fill:#2296F3;" points="268.312,220.867 299.288,195.787 246.381,136.899 212.333,152.6 251.075,195.787 
			220.867,219.919 221.72,220.867 		"/>
		<path style="fill:#FFEB3A;" d="M400.067,348.867c23.564,0,42.667-19.103,42.667-42.667c0-23.564-19.103-42.667-42.667-42.667
			H109.933c-23.564,0-42.667,19.103-42.667,42.667c0,23.564,19.103,42.667,42.667,42.667H400.067z"/>
		<path style="fill:#0377BC;" d="M289.133,400.067c9.426,0,17.067,7.641,17.067,17.067c0,9.426-7.641,17.067-17.067,17.067
			c9.426,0,17.067,7.641,17.067,17.067c0,9.426-7.641,17.067-17.067,17.067h85.333c6.792-0.009,13.309,2.685,18.112,7.488
			c4.803,4.803,7.497,11.32,7.488,18.112v8.533H109.933l0-8.533c-0.009-6.792,2.685-13.309,7.488-18.112
			c4.803-4.803,11.32-7.497,18.112-7.488h84.736c-9.189-0.327-16.469-7.872-16.469-17.067c0-9.195,7.28-16.739,16.469-17.067
			c-9.305-0.328-16.631-8.051-16.468-17.36c0.163-9.309,7.755-16.771,17.066-16.773h-85.333c-6.792,0.009-13.309-2.685-18.112-7.488
			c-4.803-4.803-7.497-11.32-7.488-18.112V237.933c-0.009-6.792,2.685-13.309,7.488-18.112c4.803-4.803,11.32-7.497,18.112-7.488
			h238.933c6.792-0.009,13.309,2.685,18.112,7.488c4.803,4.803,7.497,11.32,7.488,18.112v136.533
			c0.009,6.792-2.685,13.309-7.488,18.112c-4.803,4.803-11.32,7.497-18.112,7.488H289.133z"/>
		<path style="fill:#02A9F4;" d="M264.387,400.067c9.086,0.466,16.214,7.969,16.214,17.067c0,9.098-7.128,16.601-16.214,17.067
			c9.25,0.468,16.44,8.224,16.209,17.483c-0.231,9.259-7.801,16.645-17.062,16.651h85.333c6.792-0.009,13.309,2.685,18.112,7.488
			c4.803,4.803,7.497,11.32,7.488,18.112v8.533H109.933l0-8.533c-0.009-6.792,2.685-13.309,7.488-18.112
			c4.803-4.803,11.32-7.497,18.112-7.488h84.565c-0.065-0.009-0.125-0.039-0.171-0.085c-0.832,0.004-1.661-0.082-2.475-0.256
			c-1.888-0.398-3.702-1.089-5.376-2.048l-1.024-0.768c-1.248-0.863-2.368-1.897-3.328-3.072c-0.617-0.741-1.161-1.542-1.621-2.389
			c-0.482-0.751-0.883-1.552-1.195-2.389c-0.414-1.101-0.7-2.247-0.853-3.413c-0.342-1.747-0.342-3.544,0-5.291
			c0.153-1.167,0.439-2.312,0.853-3.413c0.312-0.837,0.712-1.638,1.195-2.389v-0.085c0.471-0.815,1.013-1.586,1.621-2.304
			c0.423-0.594,0.942-1.113,1.536-1.536c0.211-0.297,0.471-0.557,0.768-0.768c0.32-0.283,0.663-0.54,1.024-0.768l1.024-0.768
			c1.674-0.959,3.488-1.65,5.376-2.048c0.698-0.174,1.414-0.26,2.133-0.256c0.043,0.169,0.206,0.28,0.379,0.259
			c0.174-0.022,0.304-0.169,0.304-0.344c0-0.175-0.13-0.322-0.304-0.344c-0.173-0.022-0.336,0.089-0.379,0.259
			c-0.663,0.005-1.323-0.082-1.963-0.256c-1.949-0.374-3.823-1.066-5.547-2.048l-1.024-0.768c-1.248-0.863-2.368-1.897-3.328-3.072
			c-0.608-0.718-1.151-1.489-1.621-2.304v-0.085c-0.482-0.751-0.883-1.552-1.195-2.389c-0.414-1.101-0.7-2.247-0.853-3.413
			c-0.174-0.871-0.26-1.757-0.256-2.645c0.028-9.414,7.652-17.039,17.067-17.067h-85.333c-6.792,0.009-13.309-2.685-18.112-7.488
			c-4.803-4.803-7.497-11.32-7.488-18.112V237.933c-0.009-6.792,2.685-13.309,7.488-18.112c4.803-4.803,11.32-7.497,18.112-7.488
			h213.333c6.792-0.009,13.309,2.685,18.112,7.488c4.803,4.803,7.497,11.32,7.488,18.112v136.533
			c0.009,6.792-2.685,13.309-7.488,18.112c-4.803,4.803-11.32,7.497-18.112,7.488H264.387z"/>
		<path style="fill:#1566C0;" d="M306.2,451.267c-0.028,9.414-7.652,17.039-17.067,17.067h-25.6
			c9.261-0.005,16.831-7.392,17.062-16.651c0.231-9.259-6.959-17.014-16.209-17.483c9.086-0.466,16.214-7.969,16.214-17.067
			c0-9.098-7.128-16.601-16.214-17.067h24.747c9.426,0,17.067,7.641,17.067,17.067s-7.641,17.067-17.067,17.067
			C298.548,434.228,306.173,441.852,306.2,451.267z"/>
		<path style="fill:#2296F3;" d="M280.6,451.267c-0.028,9.414-7.652,17.039-17.067,17.067h-43.435
			c-0.065-0.009-0.125-0.039-0.171-0.085c-0.832,0.004-1.661-0.082-2.475-0.256c-1.888-0.398-3.702-1.089-5.376-2.048l-1.024-0.768
			c-1.248-0.863-2.368-1.897-3.328-3.072c-0.617-0.741-1.161-1.542-1.621-2.389c-0.482-0.751-0.883-1.552-1.195-2.389
			c-0.414-1.101-0.7-2.247-0.853-3.413c-0.342-1.747-0.342-3.544,0-5.291c0.153-1.167,0.439-2.312,0.853-3.413
			c0.312-0.837,0.712-1.638,1.195-2.389v-0.085c0.471-0.815,1.013-1.586,1.621-2.304c0.423-0.594,0.942-1.113,1.536-1.536
			c0.211-0.297,0.471-0.557,0.768-0.768c0.32-0.283,0.663-0.54,1.024-0.768l1.024-0.768c1.674-0.959,3.488-1.65,5.376-2.048
			c0.698-0.174,1.414-0.26,2.133-0.256c0.043,0.169,0.206,0.28,0.379,0.259c0.174-0.022,0.304-0.169,0.304-0.344
			s-0.13-0.322-0.304-0.344c-0.173-0.022-0.336,0.089-0.379,0.259c-0.663,0.005-1.323-0.082-1.963-0.256
			c-1.949-0.374-3.823-1.066-5.547-2.048l-1.024-0.768c-1.248-0.863-2.368-1.897-3.328-3.072c-0.608-0.718-1.151-1.489-1.621-2.304
			v-0.085c-0.482-0.751-0.883-1.552-1.195-2.389c-0.414-1.101-0.7-2.247-0.853-3.413c-0.174-0.871-0.26-1.757-0.256-2.645
			c0.027-9.414,7.652-17.039,17.067-17.067h43.52c9.086,0.466,16.214,7.969,16.214,17.067c0,9.098-7.128,16.601-16.214,17.067
			C273.451,434.714,280.551,442.188,280.6,451.267z"/>
		<path style="fill:#0377BC;" d="M400.067,493.933l0,8.533h-25.6v-8.533c0.009-6.792-2.685-13.309-7.488-18.112
			c-4.803-4.803-11.32-7.497-18.112-7.488h25.6c6.792-0.009,13.309,2.685,18.112,7.488
			C397.382,480.624,400.076,487.141,400.067,493.933z"/>
		<path style="fill:#02A9F4;" d="M374.467,493.933v8.533H109.933l0-8.533c-0.009-6.792,2.685-13.309,7.488-18.112
			c4.803-4.803,11.32-7.497,18.112-7.488h213.333c6.792-0.009,13.309,2.685,18.112,7.488
			C371.781,480.624,374.476,487.141,374.467,493.933z"/>
		<g>
			<path style="fill:#FFEB3A;" d="M178.2,246.467h17.067c9.426,0,17.067,7.641,17.067,17.067V280.6
				c0,9.426-7.641,17.067-17.067,17.067H178.2c-9.426,0-17.067-7.641-17.067-17.067v-17.067
				C161.133,254.108,168.774,246.467,178.2,246.467z"/>
			<path style="fill:#FFEB3A;" d="M314.733,246.467H331.8c9.426,0,17.067,7.641,17.067,17.067V280.6
				c0,9.426-7.641,17.067-17.067,17.067h-17.067c-9.426,0-17.067-7.641-17.067-17.067v-17.067
				C297.667,254.108,305.308,246.467,314.733,246.467z"/>
			<circle style="fill:#FFEB3A;" cx="220.867" cy="135.533" r="25.6"/>
		</g>
		<g>
			<rect x="161.133" y="365.933" style="fill:#F5F5F5;" width="187.733" height="34.133"/>
			<path style="fill:#F5F5F5;" d="M348.867,348.867v17.067H161.133v-17.067c0.027-9.414,7.652-17.039,17.067-17.067h153.6
				C341.214,331.828,348.839,339.452,348.867,348.867z"/>
		</g>
		<g>
			<path style="fill:#00838F;" d="M432.323,203.8h-25.6c-4.202-29.619-15.794-57.704-33.707-81.664v-0.085l25.344-25.344
				c3.328-3.354,3.328-8.764,0-12.117l-17.408-17.408l6.741-6.741c3.354-3.328,8.764-3.328,12.117,0l24.149,24.149
				c3.328,3.354,3.328,8.764,0,12.117l-25.344,25.344v0.085C416.529,146.096,428.12,174.181,432.323,203.8z"/>
			<path style="fill:#00838F;" d="M485.4,212.333v34.133c-0.014,4.707-3.826,8.519-8.533,8.533h-25.6
				c4.707-0.014,8.519-3.826,8.533-8.533v-34.133c-0.014-4.707-3.826-8.519-8.533-8.533h25.6
				C481.574,203.814,485.386,207.626,485.4,212.333z"/>
		</g>
	</g>
	<g>
		<path d="M34.133,264.533h37.288c0.505,2.776,1.166,5.462,1.784,8.173c-12.685,13.797-16.791,33.434-10.698,51.157
			c6.093,17.724,21.406,30.685,39.893,33.765v17.837c0.022,18.842,15.291,34.112,34.133,34.133h61.306
			c-3.296,8.807-1.326,18.721,5.086,25.6c-6.413,6.879-8.382,16.793-5.085,25.6h-61.306c-18.842,0.022-34.112,15.291-34.133,34.133
			v8.533c0,4.713,3.821,8.533,8.533,8.533h289.421c0.127,0,0.231-0.067,0.356-0.072c0.125,0.005,0.23,0.072,0.356,0.072
			c2.263,0.001,4.434-0.898,6.035-2.499c1.6-1.6,2.499-3.771,2.499-6.035v-8.533c-0.022-18.842-15.291-34.112-34.133-34.133h-61.306
			c3.296-8.807,1.326-18.721-5.086-25.6c6.412-6.879,8.382-16.793,5.086-25.6h61.306c18.842-0.022,34.112-15.291,34.133-34.133
			v-17.837c18.486-3.08,33.799-16.041,39.892-33.764c6.093-17.723,1.987-37.36-10.697-51.157c0.62-2.714,1.283-5.406,1.788-8.175
			h37.283c9.421-0.011,17.056-7.645,17.067-17.067v-34.133c-0.011-9.421-7.645-17.056-17.067-17.067h-37.275
			c-4.769-25.917-14.946-50.538-29.867-72.258l20.267-20.263c6.667-6.686,6.667-17.506,0-24.192L406.85,55.408
			c-6.686-6.667-17.506-6.667-24.192,0l-20.229,20.229c-21.736-14.91-46.369-25.073-72.296-29.825V17.067
			C290.124,7.645,282.488,0.009,273.067,0h-34.133c-9.422,0.009-17.057,7.645-17.067,17.067v28.75
			c-25.916,4.765-50.537,14.937-72.258,29.854l-20.267-20.263c-6.684-6.667-17.503-6.667-24.188,0L81.008,79.554
			c-6.671,6.683-6.671,17.505,0,24.188l20.229,20.229c-14.91,21.736-25.073,46.369-29.825,72.296H34.133
			c-9.422,0.009-17.057,7.645-17.067,17.067v34.133C17.076,256.888,24.712,264.524,34.133,264.533z M76.8,307.2
			c0.047-15.521,10.569-29.052,25.6-32.922v65.843C87.369,336.252,76.847,322.721,76.8,307.2z M341.333,358.4H170.667v-8.533
			c0.006-4.71,3.823-8.527,8.533-8.533h153.6c4.71,0.006,8.527,3.823,8.533,8.533V358.4z M170.667,375.467h170.667v17.067H170.667
			V375.467z M392.533,494.933H119.467c0.009-9.422,7.645-17.057,17.067-17.067h238.933
			C384.888,477.876,392.524,485.512,392.533,494.933z M221.867,460.8c-4.713,0-8.533-3.82-8.533-8.533s3.821-8.533,8.533-8.533
			c4.713,0,8.533-3.821,8.533-8.533s-3.821-8.533-8.533-8.533c-4.713,0-8.533-3.82-8.533-8.533s3.821-8.533,8.533-8.533h68.267
			c4.713,0,8.533,3.82,8.533,8.533s-3.821,8.533-8.533,8.533c-4.713,0-8.533,3.82-8.533,8.533s3.821,8.533,8.533,8.533
			c4.713,0,8.533,3.82,8.533,8.533s-3.821,8.533-8.533,8.533H221.867z M392.533,375.467c-0.009,9.422-7.645,17.057-17.067,17.067
			H358.4v-42.667c-0.015-14.132-11.468-25.585-25.6-25.6H179.2c-14.132,0.015-25.585,11.468-25.6,25.6v42.667h-17.067
			c-9.422-0.009-17.057-7.645-17.067-17.067V238.933c0.009-9.422,7.645-17.057,17.067-17.067h238.933
			c9.422,0.009,17.057,7.645,17.067,17.067V375.467z M247.206,204.8l9.844-7.063c2.036-1.462,3.327-3.746,3.529-6.244
			c0.202-2.499-0.704-4.96-2.479-6.73l-18.995-18.938c4.978-2.938,9.129-7.092,12.064-12.072l36.022,36.022L266.537,204.8H247.206z
			 M306.321,184.771L258.18,136.63c41.183,0.804,76.972,28.504,88.077,68.17h-50.705l9.756-7.096
			c2.018-1.468,3.293-3.745,3.487-6.233C308.991,188.983,308.086,186.535,306.321,184.771L306.321,184.771z M238.933,136.533
			c0,9.426-7.641,17.067-17.067,17.067c-9.426,0-17.067-7.641-17.067-17.067c0-9.426,7.641-17.067,17.067-17.067
			C231.288,119.476,238.924,127.112,238.933,136.533z M195.838,158.351c5.926,7.095,14.495,11.46,23.718,12.082l19.365,19.309
			l-20.99,15.058h-52.183C170.92,186.662,181.399,170.486,195.838,158.351z M409.6,340.122v-65.843
			c15.058,3.828,25.599,17.385,25.599,32.922C435.199,322.737,424.658,336.293,409.6,340.122z M34.133,213.333h44.546
			c4.254,0,7.858-3.133,8.45-7.346c4.016-28.223,15.052-54.986,32.096-77.837c2.532-3.397,2.188-8.138-0.808-11.133L93.075,91.621
			l24.2-24.146l25.342,25.342c3.068,2.912,7.767,3.251,11.221,0.808c22.826-17.032,49.56-28.067,77.754-32.096
			c4.211-0.594,7.342-4.198,7.342-8.45V17.067h34.133v36.012c0,4.254,3.133,7.858,7.346,8.45
			c28.223,4.016,54.986,15.052,77.838,32.096c3.397,2.533,8.138,2.188,11.133-0.808l25.396-25.342l24.146,24.2l-25.342,25.342
			c-1.603,1.634-2.501,3.832-2.5,6.121c-0.001,1.838,0.593,3.627,1.692,5.1c17.034,22.826,28.07,49.56,32.1,77.754
			c0.595,4.21,4.198,7.341,8.45,7.342h44.542v34.133h-44.542c-4.244,0.003-7.842,3.121-8.45,7.321
			c-0.314,2.21-0.722,4.396-1.119,6.583c-4.467-2.221-9.237-3.771-14.156-4.599v-17.837c-0.022-18.842-15.291-34.112-34.133-34.133
			h-11.622c-11.682-50.093-56.408-85.483-107.845-85.333c-1.553,0-3.073,0.171-4.618,0.239
			c-8.097-14.599-25.605-21.147-41.294-15.444s-24.906,21.965-21.739,38.356c-20.071,15.551-34.231,37.489-40.139,62.182h-11.677
			c-18.842,0.022-34.112,15.291-34.133,34.133v17.837c-4.919,0.829-9.689,2.378-14.155,4.599c-0.396-2.183-0.804-4.363-1.12-6.574
			c-0.599-4.204-4.199-7.328-8.446-7.329H34.133V213.333z"/>
		<path d="M196.267,238.933H179.2c-14.132,0.015-25.585,11.468-25.6,25.6V281.6c0.015,14.132,11.468,25.585,25.6,25.6h17.067
			c14.132-0.015,25.585-11.468,25.6-25.6v-17.067C221.851,250.401,210.399,238.949,196.267,238.933z M204.8,281.6
			c-0.006,4.71-3.823,8.527-8.533,8.533H179.2c-4.71-0.006-8.527-3.823-8.533-8.533v-17.067c0.006-4.71,3.823-8.527,8.533-8.533
			h17.067c4.71,0.006,8.527,3.823,8.533,8.533V281.6z"/>
		<path d="M332.8,238.933h-17.067c-14.132,0.015-25.585,11.468-25.6,25.6V281.6c0.015,14.132,11.468,25.585,25.6,25.6H332.8
			c14.132-0.015,25.585-11.468,25.6-25.6v-17.067C358.385,250.401,346.932,238.949,332.8,238.933z M341.333,281.6
			c-0.006,4.71-3.823,8.527-8.533,8.533h-17.067c-4.71-0.006-8.527-3.823-8.533-8.533v-17.067c0.006-4.71,3.823-8.527,8.533-8.533
			H332.8c4.71,0.006,8.527,3.823,8.533,8.533V281.6z"/>
	</g>
</g>
<g>
</g>
<g>
</g>
<g>
</g>
<g>
</g>
<g>
</g>
<g>
</g>
<g>
</g>
<g>
</g>
<g>
</g>
<g>
</g>
<g>
</g>
<g>
</g>
<g>
</g>
<g>
</g>
<g>
</g>
</svg>
